<svg xmlns="http://www.w3.org/2000/svg" viewBox="0 0 680 420" width="680" height="420">
<rect width="680" height="420" fill="#111827"/>
<circle cx="340.00" cy="224.00" r="43.56" fill="none" stroke="rgba(255,255,255,0.20)" stroke-width="1" opacity="1"/>
<circle cx="340.00" cy="224.00" r="87.12" fill="none" stroke="rgba(255,255,255,0.20)" stroke-width="1" opacity="1"/>
<circle cx="340.00" cy="224.00" r="132.00" fill="none" stroke="rgba(255,255,255,0.55)" stroke-width="2" opacity="1"/>
<line x1="208.00" y1="224.00" x2="472.00" y2="224.00" stroke="rgba(255,255,255,0.18)" stroke-width="1" opacity="1" stroke-linecap="round"/>
<line x1="225.68" y1="158.00" x2="454.32" y2="290.00" stroke="rgba(255,255,255,0.18)" stroke-width="1" opacity="1" stroke-linecap="round"/>
<line x1="274.00" y1="109.68" x2="406.00" y2="338.32" stroke="rgba(255,255,255,0.18)" stroke-width="1" opacity="1" stroke-linecap="round"/>
<line x1="340.00" y1="92.00" x2="340.00" y2="356.00" stroke="rgba(255,255,255,0.18)" stroke-width="1" opacity="1" stroke-linecap="round"/>
<line x1="406.00" y1="109.68" x2="274.00" y2="338.32" stroke="rgba(255,255,255,0.18)" stroke-width="1" opacity="1" stroke-linecap="round"/>
<line x1="454.32" y1="158.00" x2="225.68" y2="290.00" stroke="rgba(255,255,255,0.18)" stroke-width="1" opacity="1" stroke-linecap="round"/>
<line x1="472.00" y1="224.00" x2="208.00" y2="224.00" stroke="rgba(255,255,255,0.18)" stroke-width="1" opacity="1" stroke-linecap="round"/>
<line x1="454.32" y1="290.00" x2="225.68" y2="158.00" stroke="rgba(255,255,255,0.18)" stroke-width="1" opacity="1" stroke-linecap="round"/>
<line x1="406.00" y1="338.32" x2="274.00" y2="109.68" stroke="rgba(255,255,255,0.18)" stroke-width="1" opacity="1" stroke-linecap="round"/>
<line x1="340.00" y1="356.00" x2="340.00" y2="92.00" stroke="rgba(255,255,255,0.18)" stroke-width="1" opacity="1" stroke-linecap="round"/>
<line x1="274.00" y1="338.32" x2="406.00" y2="109.68" stroke="rgba(255,255,255,0.18)" stroke-width="1" opacity="1" stroke-linecap="round"/>
<line x1="225.68" y1="290.00" x2="454.32" y2="158.00" stroke="rgba(255,255,255,0.18)" stroke-width="1" opacity="1" stroke-linecap="round"/>
<circle cx="340.00" cy="224.00" r="6.00" fill="#f9fafb" stroke="none" stroke-width="1" opacity="1"/>
<circle cx="340.00" cy="92.00" r="5.00" fill="none" stroke="rgba(249,250,251,0.78)" stroke-width="2" opacity="1"/>
<circle cx="340.00" cy="356.00" r="5.00" fill="none" stroke="rgba(249,250,251,0.78)" stroke-width="2" opacity="1"/>
<circle cx="340.00" cy="121.04" r="7.00" fill="#f59e0b" stroke="none" stroke-width="1" opacity="1"/>
<circle cx="367.72" cy="175.99" r="4.80" fill="#f59e0b" stroke="none" stroke-width="1" opacity="1"/>
<circle cx="429.17" cy="172.52" r="7.00" fill="#f59e0b" stroke="none" stroke-width="1" opacity="1"/>
<circle cx="395.44" cy="224.00" r="4.80" fill="#f59e0b" stroke="none" stroke-width="1" opacity="1"/>
<circle cx="429.17" cy="275.48" r="7.00" fill="#f59e0b" stroke="none" stroke-width="1" opacity="1"/>
<circle cx="367.72" cy="272.01" r="4.80" fill="#f59e0b" stroke="none" stroke-width="1" opacity="1"/>
<circle cx="340.00" cy="326.96" r="7.00" fill="#f59e0b" stroke="none" stroke-width="1" opacity="1"/>
<circle cx="312.28" cy="272.01" r="4.80" fill="#f59e0b" stroke="none" stroke-width="1" opacity="1"/>
<circle cx="250.83" cy="275.48" r="7.00" fill="#f59e0b" stroke="none" stroke-width="1" opacity="1"/>
<circle cx="284.56" cy="224.00" r="4.80" fill="#f59e0b" stroke="none" stroke-width="1" opacity="1"/>
<circle cx="250.83" cy="172.52" r="7.00" fill="#f59e0b" stroke="none" stroke-width="1" opacity="1"/>
<circle cx="312.28" cy="175.99" r="4.80" fill="#f59e0b" stroke="none" stroke-width="1" opacity="1"/>
<line x1="280.60" y1="164.60" x2="399.40" y2="283.40" stroke="rgba(248,113,113,0.86)" stroke-width="3" opacity="1" stroke-linecap="round"/>
<line x1="399.40" y1="164.60" x2="280.60" y2="283.40" stroke="rgba(248,113,113,0.86)" stroke-width="3" opacity="1" stroke-linecap="round"/>
<text x="28.00" y="50.00" fill="#f9fafb" font-family="Inter, Arial, sans-serif" font-size="26" font-weight="700" text-anchor="start" opacity="1">6/m</text>
<text x="28.00" y="78.00" fill="#f9fafb" font-family="Inter, Arial, sans-serif" font-size="15" font-weight="500" text-anchor="start" opacity="0.72">C6h · Hexagonal</text>
<text x="340.00" y="78.00" fill="#f9fafb" font-family="Inter, Arial, sans-serif" font-size="13" font-weight="500" text-anchor="middle" opacity="0.72">N</text>
<text x="340.00" y="384.00" fill="#f9fafb" font-family="Inter, Arial, sans-serif" font-size="13" font-weight="500" text-anchor="middle" opacity="0.72">S</text>
<text x="340.00" y="410.00" fill="#f9fafb" font-family="Inter, Arial, sans-serif" font-size="13" font-weight="500" text-anchor="middle" opacity="0.72">6-fold stereogram</text>
</svg>